<svg width="31" height="24" viewBox="0 0 31 24" fill="none" xmlns="http://www.w3.org/2000/svg">
<path d="M9.4 0.535999C11.768 0.535999 13.8373 1.00533 15.608 1.944C17.3787 2.88267 18.744 4.20533 19.704 5.912C20.6853 7.59733 21.176 9.54933 21.176 11.768C21.176 13.9653 20.6853 15.9173 19.704 17.624C18.744 19.3307 17.368 20.6533 15.576 21.592C13.8053 22.5307 11.7467 23 9.4 23H0.984V0.535999H9.4ZM9.048 18.264C11.1173 18.264 12.728 17.6987 13.88 16.568C15.032 15.4373 15.608 13.8373 15.608 11.768C15.608 9.69867 15.032 8.088 13.88 6.936C12.728 5.784 11.1173 5.208 9.048 5.208H6.456V18.264H9.048ZM26.794 23.256C25.834 23.256 25.0447 22.9787 24.426 22.424C23.8287 21.848 23.53 21.144 23.53 20.312C23.53 19.4587 23.8287 18.744 24.426 18.168C25.0447 17.592 25.834 17.304 26.794 17.304C27.7327 17.304 28.5007 17.592 29.098 18.168C29.7167 18.744 30.026 19.4587 30.026 20.312C30.026 21.144 29.7167 21.848 29.098 22.424C28.5007 22.9787 27.7327 23.256 26.794 23.256Z" fill="#202129"/>
<path d="M15.608 1.944L16.0764 1.06047L16.0764 1.06047L15.608 1.944ZM19.704 5.912L18.8324 6.40226L18.8361 6.40875L18.8398 6.41519L19.704 5.912ZM19.704 17.624L18.8371 17.1255L18.8324 17.1337L19.704 17.624ZM15.576 21.592L15.112 20.7062L15.1076 20.7085L15.576 21.592ZM0.984 23H-0.0159999V24H0.984V23ZM0.984 0.535999V-0.464001H-0.0159999V0.535999H0.984ZM6.456 5.208V4.208H5.456V5.208H6.456ZM6.456 18.264H5.456V19.264H6.456V18.264ZM9.4 1.536C11.6343 1.536 13.5373 1.97811 15.1396 2.82753L16.0764 1.06047C14.1374 0.0325578 11.9017 -0.464001 9.4 -0.464001V1.536ZM15.1396 2.82753C16.7452 3.67867 17.9687 4.8667 18.8324 6.40226L20.5756 5.42174C19.5193 3.54396 18.0121 2.08666 16.0764 1.06047L15.1396 2.82753ZM18.8398 6.41519C19.7205 7.92767 20.176 9.70135 20.176 11.768H22.176C22.176 9.39732 21.6502 7.26699 20.5682 5.40881L18.8398 6.41519ZM20.176 11.768C20.176 13.8112 19.7214 15.5876 18.8371 17.1255L20.5709 18.1225C21.6492 16.2471 22.176 14.1195 22.176 11.768H20.176ZM18.8324 17.1337C17.9705 18.6661 16.7387 19.8541 15.112 20.7062L16.04 22.4778C17.9973 21.4526 19.5175 19.9952 20.5756 18.1143L18.8324 17.1337ZM15.1076 20.7085C13.5041 21.5586 11.6113 22 9.4 22V24C11.882 24 14.1066 23.5028 16.0444 22.4755L15.1076 20.7085ZM9.4 22H0.984V24H9.4V22ZM1.984 23V0.535999H-0.0159999V23H1.984ZM0.984 1.536H9.4V-0.464001H0.984V1.536ZM9.048 19.264C11.3022 19.264 13.1928 18.6436 14.5805 17.2817L13.1795 15.8543C12.2632 16.7537 10.9325 17.264 9.048 17.264V19.264ZM14.5805 17.2817C15.9742 15.9138 16.608 14.0263 16.608 11.768H14.608C14.608 13.6484 14.0898 14.9609 13.1795 15.8543L14.5805 17.2817ZM16.608 11.768C16.608 9.50873 15.9739 7.61569 14.5871 6.22889L13.1729 7.64311C14.0901 8.56031 14.608 9.8886 14.608 11.768H16.608ZM14.5871 6.22889C13.2003 4.8421 11.3073 4.208 9.048 4.208V6.208C10.9274 6.208 12.2557 6.7259 13.1729 7.64311L14.5871 6.22889ZM9.048 4.208H6.456V6.208H9.048V4.208ZM5.456 5.208V18.264H7.456V5.208H5.456ZM6.456 19.264H9.048V17.264H6.456V19.264ZM24.426 22.424L23.7319 23.1438L23.7449 23.1564L23.7585 23.1686L24.426 22.424ZM24.426 18.168L23.7446 17.4361L23.7382 17.4421L23.7319 17.4482L24.426 18.168ZM29.098 18.168L28.4039 18.8878L28.4102 18.8939L28.4166 18.8999L29.098 18.168ZM29.098 22.424L29.7785 23.1568L29.7794 23.1559L29.098 22.424ZM26.794 22.256C26.0396 22.256 25.5005 22.0443 25.0935 21.6794L23.7585 23.1686C24.5888 23.913 25.6284 24.256 26.794 24.256V22.256ZM25.1201 21.7042C24.7188 21.3172 24.53 20.8733 24.53 20.312H22.53C22.53 21.4147 22.9385 22.3788 23.7319 23.1438L25.1201 21.7042ZM24.53 20.312C24.53 19.7215 24.7244 19.2694 25.1201 18.8878L23.7319 17.4482C22.9329 18.2186 22.53 19.1958 22.53 20.312H24.53ZM25.1074 18.8999C25.5156 18.5198 26.0499 18.304 26.794 18.304V16.304C25.6181 16.304 24.5737 16.6642 23.7446 17.4361L25.1074 18.8999ZM26.794 18.304C27.5106 18.304 28.0178 18.5156 28.4039 18.8878L29.7921 17.4482C28.9835 16.6684 27.9548 16.304 26.794 16.304V18.304ZM28.4166 18.8999C28.8299 19.2847 29.026 19.7333 29.026 20.312H31.026C31.026 19.1841 30.6035 18.2033 29.7794 17.4361L28.4166 18.8999ZM29.026 20.312C29.026 20.8614 28.8358 21.3018 28.4166 21.6921L29.7794 23.1559C30.5976 22.3942 31.026 21.4266 31.026 20.312H29.026ZM28.4175 21.6912C28.0332 22.0481 27.5213 22.256 26.794 22.256V24.256C27.9441 24.256 28.9682 23.9092 29.7785 23.1568L28.4175 21.6912Z" fill="#F5F6F9"/>
</svg>
