<svg width="391" height="376" viewBox="0 0 391 376" fill="none" xmlns="http://www.w3.org/2000/svg">
<path fill-rule="evenodd" clip-rule="evenodd" d="M302.535 204.215C329.926 203.447 358.181 213.085 375.279 232.859C391.157 251.222 384.64 276.537 385.378 300.025C386.155 324.748 400.725 355.965 379.626 371.203C358.319 386.592 329.585 360.048 302.535 359.857C275.946 359.67 246.268 386.659 226.613 370.124C207.127 353.732 230.052 324.332 231.412 300.025C232.638 278.134 220.654 254.896 234.076 236.815C249.166 216.487 275.855 204.962 302.535 204.215Z" fill="url(#paint0_linear_80_17)"/>
<path fill-rule="evenodd" clip-rule="evenodd" d="M94.2056 122.177C114.384 119.205 136.684 123.34 150.782 140.169C164.715 156.801 162.521 182.051 163.659 205.084C164.907 230.356 173.617 260.415 157.58 277.799C141.607 295.114 115.488 286.65 94.2056 280.372C78.4787 275.733 70.0751 258.71 56.7536 248.056C37.4394 232.609 1.87546 232.017 0.0671985 205.084C-1.70899 178.628 32.1573 171.095 50.5018 154.939C64.852 142.301 76.2628 124.819 94.2056 122.177Z" fill="url(#paint1_linear_80_17)"/>
<path fill-rule="evenodd" clip-rule="evenodd" d="M274.563 5.23294C296.884 8.81606 316.614 19.1366 329.439 34.253C340.245 46.9893 333.567 63.1467 336.614 78.3676C340.863 99.5954 363.644 120.684 350.49 139.405C336.317 159.575 303.346 167.792 274.563 166.674C246.819 165.597 219.728 153.021 205.637 133.778C193.497 117.2 212 97.5307 209.898 78.3676C207.337 55.0247 175.415 31.3386 192.303 12.2385C208.91 -6.54361 246.454 0.72051 274.563 5.23294Z" fill="url(#paint2_linear_80_17)"/>
<defs>
<linearGradient id="paint0_linear_80_17" x1="585.408" y1="508.984" x2="475.456" y2="641.227" gradientUnits="userSpaceOnUse">
<stop stop-color="#CC8700"/>
<stop offset="1" stop-color="#96360A"/>
</linearGradient>
<linearGradient id="paint1_linear_80_17" x1="-86.8583" y1="268.885" x2="57.1064" y2="353.607" gradientUnits="userSpaceOnUse">
<stop stop-color="#1F1780"/>
<stop offset="1" stop-color="#26AFFC"/>
</linearGradient>
<linearGradient id="paint2_linear_80_17" x1="194.129" y1="84.1883" x2="360.732" y2="70.8642" gradientUnits="userSpaceOnUse">
<stop stop-color="#545454"/>
<stop offset="1" stop-color="#55636B"/>
</linearGradient>
</defs>
</svg>
