<svg width="391" height="376" viewBox="0 0 391 376" fill="none" xmlns="http://www.w3.org/2000/svg">
<path fill-rule="evenodd" clip-rule="evenodd" d="M79.709 132.379C103.045 135.599 106.591 163.77 122.619 179.062C137.353 193.12 163.411 198.234 168.281 216.886C173.832 238.147 165.617 261.758 148.276 277.325C130.82 292.996 104.61 295.654 79.709 296.399C53.6355 297.178 22.1337 299.864 6.32578 281.57C-9.11369 263.703 8.21394 239.211 11.0006 216.886C13.2614 198.773 8.83048 179.835 20.873 165.024C34.9065 147.764 55.908 129.095 79.709 132.379Z" fill="url(#paint0_linear_80_17)"/>
<path fill-rule="evenodd" clip-rule="evenodd" d="M266.64 0.0373995C291.283 1.15794 297.084 29.4595 313.318 44.9957C327.488 58.5575 351.118 66.2107 354.381 84.0085C357.951 103.479 345.568 122.199 330.215 137.144C313.424 153.487 292.299 167.377 266.64 169.414C238.712 171.63 204.585 168.181 189.726 148.293C175.406 129.126 197.713 106.197 202.832 84.0085C206.333 68.8336 204.679 53.5521 214.592 40.5065C227.798 23.1267 242.043 -1.08107 266.64 0.0373995Z" fill="url(#paint1_linear_80_17)"/>
<path fill-rule="evenodd" clip-rule="evenodd" d="M297.418 206.13C321.595 203.97 338.776 229.199 355.549 248.014C371.784 266.226 395.104 285.719 390.381 310.41C385.729 334.727 355.579 338.784 335.744 351.549C323.234 359.601 311.777 367.48 297.418 370.237C278.646 373.842 257.787 381.553 242.39 369.477C225.885 356.532 219.995 332.317 221.137 310.41C222.224 289.554 236.202 274.032 248.22 257.602C262.922 237.504 273.693 208.249 297.418 206.13Z" fill="url(#paint2_linear_80_17)"/>
<defs>
<linearGradient id="paint0_linear_80_17" x1="-88.346" y1="278.024" x2="55.9716" y2="365.338" gradientUnits="userSpaceOnUse">
<stop stop-color="#1F1780"/>
<stop offset="1" stop-color="#26AFFC"/>
</linearGradient>
<linearGradient id="paint1_linear_80_17" x1="191.848" y1="85.8167" x2="361.31" y2="72.2935" gradientUnits="userSpaceOnUse">
<stop stop-color="#545454"/>
<stop offset="1" stop-color="#55636B"/>
</linearGradient>
<linearGradient id="paint2_linear_80_17" x1="582.922" y1="507.569" x2="474.097" y2="638.173" gradientUnits="userSpaceOnUse">
<stop stop-color="#CC8700"/>
<stop offset="1" stop-color="#96360A"/>
</linearGradient>
</defs>
</svg>
