<svg width="387" height="376" viewBox="0 0 387 376" fill="none" xmlns="http://www.w3.org/2000/svg">
<path fill-rule="evenodd" clip-rule="evenodd" d="M92.9273 122.185C114.113 126.991 116.608 153.113 131.272 167.905C144.468 181.218 170.942 185.115 173.025 202.986C175.142 221.147 153.587 232.71 140.427 246.444C125.657 261.859 115.149 289.212 92.9273 286.583C70.2903 283.906 72.4635 251.241 56.3042 236.493C40.1001 221.703 7.28888 223.206 1.33452 202.986C-4.93114 181.709 11.9546 160.062 29.2925 144.767C46.3184 129.747 69.9711 116.976 92.9273 122.185Z" fill="url(#paint0_linear_80_17)"/>
<path fill-rule="evenodd" clip-rule="evenodd" d="M314.927 204.835C338.682 202.466 367.51 204.269 381.258 221.793C394.54 238.723 376.84 260.622 374.872 281.242C373.216 298.577 380.431 316.212 370.801 331.319C358.02 351.368 340.682 375.882 314.927 375.279C289.225 374.678 278.943 346.02 261.897 328.77C246.65 313.341 222.004 301.852 222 281.242C221.996 260.631 244.934 247.633 261.88 233.699C277.726 220.67 293.554 206.966 314.927 204.835Z" fill="url(#paint1_linear_80_17)"/>
<path fill-rule="evenodd" clip-rule="evenodd" d="M260.3 17.828C285.89 17.7477 311.58 -9.63424 332.795 4.21215C354.012 18.0603 351.372 49.9732 346.914 74.3589C343.164 94.8735 325.249 107.8 311.005 123.422C295.082 140.885 284.107 165.934 260.3 169.351C234.735 173.02 206.995 160.832 191.933 140.512C178.119 121.876 190.508 97.2847 189.89 74.3589C189.24 50.2108 169.061 20.091 188.274 4.66573C207.821 -11.0283 234.9 17.9077 260.3 17.828Z" fill="url(#paint2_linear_80_17)"/>
<defs>
<linearGradient id="paint0_linear_80_17" x1="-89.9934" y1="267.697" x2="55.9148" y2="357.206" gradientUnits="userSpaceOnUse">
<stop stop-color="#1F1780"/>
<stop offset="1" stop-color="#26AFFC"/>
</linearGradient>
<linearGradient id="paint1_linear_80_17" x1="571.488" y1="507.858" x2="461.091" y2="634.834" gradientUnits="userSpaceOnUse">
<stop stop-color="#CC8700"/>
<stop offset="1" stop-color="#96360A"/>
</linearGradient>
<linearGradient id="paint2_linear_80_17" x1="186.848" y1="85.8167" x2="356.31" y2="72.2935" gradientUnits="userSpaceOnUse">
<stop stop-color="#545454"/>
<stop offset="1" stop-color="#55636B"/>
</linearGradient>
</defs>
</svg>
