<svg width="391" height="376" viewBox="0 0 391 376" fill="none" xmlns="http://www.w3.org/2000/svg">
<path fill-rule="evenodd" clip-rule="evenodd" d="M91.7476 132.016C113.749 131.341 129.926 151.695 142.866 169.3C153.633 183.947 153.357 201.965 156.3 219.837C160.27 243.943 180.648 273.197 162.748 290.03C144.759 306.946 116.544 279.322 91.7476 280.541C63.9723 281.905 35.7399 313.639 13.3207 297.372C-8.63699 281.439 1.72473 246.019 8.08785 219.837C12.9293 199.916 29.4986 187.257 43.7068 172.342C58.6793 156.625 69.9197 132.686 91.7476 132.016Z" fill="url(#paint0_linear_80_17)"/>
<path fill-rule="evenodd" clip-rule="evenodd" d="M270.557 1.98248C296.074 -1.09827 328.122 -3.11082 343.237 16.0326C358.137 34.9044 333.217 59.5348 334.387 82.8264C335.686 108.684 366.546 134.958 350.273 156.087C334.177 176.985 298.177 169.055 270.557 165.703C247.308 162.881 225.573 154.635 209.44 138.993C193.755 123.787 184.04 103.757 185.075 82.8264C186.07 62.7196 199.492 45.9795 214.755 31.5445C230.309 16.8342 248.428 4.65417 270.557 1.98248Z" fill="url(#paint1_linear_80_17)"/>
<path fill-rule="evenodd" clip-rule="evenodd" d="M318.38 206C343.395 205.991 365.908 223.325 380.426 244.679C393.02 263.202 392.224 287.241 388.895 309.718C386.137 328.336 377.134 344.699 363.748 357.274C351.169 369.091 335.26 376.601 318.38 375.962C302.056 375.344 289.85 363.321 276.175 353.958C256.162 340.258 226.076 334.333 221.615 309.718C217.018 284.352 239.156 263.185 256.378 244.725C273.864 225.982 293.37 206.009 318.38 206Z" fill="url(#paint2_linear_80_17)"/>
<defs>
<linearGradient id="paint0_linear_80_17" x1="-88.346" y1="282.449" x2="58.2482" y2="368.532" gradientUnits="userSpaceOnUse">
<stop stop-color="#1F1780"/>
<stop offset="1" stop-color="#26AFFC"/>
</linearGradient>
<linearGradient id="paint1_linear_80_17" x1="191.848" y1="85.8167" x2="361.31" y2="72.2935" gradientUnits="userSpaceOnUse">
<stop stop-color="#545454"/>
<stop offset="1" stop-color="#55636B"/>
</linearGradient>
<linearGradient id="paint2_linear_80_17" x1="582.922" y1="507.569" x2="474.097" y2="638.173" gradientUnits="userSpaceOnUse">
<stop stop-color="#CC8700"/>
<stop offset="1" stop-color="#96360A"/>
</linearGradient>
</defs>
</svg>
