<svg width="391" height="376" viewBox="0 0 391 376" fill="none" xmlns="http://www.w3.org/2000/svg">
<path fill-rule="evenodd" clip-rule="evenodd" d="M302.713 229.081C328.734 220.464 357.741 192.578 379.325 211.386C400.519 229.854 387.074 269.202 383.546 299.517C380.666 324.262 378.721 352.053 361.232 366.835C344.889 380.648 322.988 367.289 302.713 367.837C281.454 368.412 258.644 384.354 241.378 370.075C223.113 354.968 216.058 324.973 220.107 299.517C223.751 276.606 244.085 264.655 260.351 250.786C273.261 239.778 287.271 234.195 302.713 229.081Z" fill="url(#paint0_linear_80_17)"/>
<path fill-rule="evenodd" clip-rule="evenodd" d="M272.235 1.00665C292.59 3.92127 307.539 20.0861 321.994 35.9052C336.357 51.6233 350.748 67.9544 353.458 89.8919C356.547 114.899 356.691 146.505 337.395 160.588C318.417 174.438 295.009 151.462 272.235 149.169C253.569 147.29 234.007 159.411 218.14 148.581C199.591 135.921 187.362 113.57 185.382 89.8919C183.237 64.2417 190.075 37.1615 207.344 19.4887C224.255 2.18145 249.186 -2.29355 272.235 1.00665Z" fill="url(#paint1_linear_80_17)"/>
<path fill-rule="evenodd" clip-rule="evenodd" d="M91.2141 132.045C117.017 131.175 143.754 142.936 158.207 163.716C171.203 182.4 158.75 206.238 158.501 228.784C158.257 250.859 174.344 278.455 156.783 292.469C139.012 306.65 114.205 283.068 91.2141 282.478C69.539 281.921 47.5673 300.103 29.0243 289.188C8.68639 277.216 0.0584859 251.883 0.000200985 228.784C-0.0582103 205.636 12.6224 185.155 28.7187 168.084C45.7283 150.044 66.0439 132.894 91.2141 132.045Z" fill="url(#paint2_linear_80_17)"/>
<defs>
<linearGradient id="paint0_linear_80_17" x1="585.179" y1="508.343" x2="475.832" y2="640.342" gradientUnits="userSpaceOnUse">
<stop stop-color="#CC8700"/>
<stop offset="1" stop-color="#96360A"/>
</linearGradient>
<linearGradient id="paint1_linear_80_17" x1="191.848" y1="83.2927" x2="361.244" y2="69.3651" gradientUnits="userSpaceOnUse">
<stop stop-color="#545454"/>
<stop offset="1" stop-color="#55636B"/>
</linearGradient>
<linearGradient id="paint2_linear_80_17" x1="-85.7476" y1="278.024" x2="56.535" y2="361.575" gradientUnits="userSpaceOnUse">
<stop stop-color="#1F1780"/>
<stop offset="1" stop-color="#26AFFC"/>
</linearGradient>
</defs>
</svg>
