<svg width="391" height="376" viewBox="0 0 391 376" fill="none" xmlns="http://www.w3.org/2000/svg">
<path fill-rule="evenodd" clip-rule="evenodd" d="M273.893 309.853V309.853L273.528 310.64L273.167 311.415L272.81 312.181L272.457 312.936L272.108 313.683L271.765 314.42L271.427 315.15L271.096 315.872L270.771 316.587L270.454 317.296L270.144 318L269.843 318.699L269.551 319.395L269.269 320.087L268.996 320.778L268.733 321.467L268.482 322.156L268.241 322.845L268.012 323.536L267.794 324.23L267.588 324.927L267.393 325.628L267.21 326.334L267.038 327.047L266.877 327.767L266.726 328.494L266.586 329.23L266.455 329.975L266.333 330.731L266.219 331.496L266.111 332.273L266.01 333.061L265.914 333.861L265.822 334.672L265.733 335.496L265.644 336.332L265.555 337.179L265.465 338.038L265.371 338.908L265.273 339.79L265.169 340.681L265.057 341.582L264.936 342.492L264.804 343.409L264.66 344.333L264.502 345.263L264.329 346.198L264.14 347.136L263.932 348.075L263.706 349.015L263.46 349.954L263.192 350.889L262.901 351.821L262.588 352.746L262.25 353.663L261.888 354.571L261.5 355.467L261.086 356.349L260.645 357.217L260.179 358.068L259.685 358.901L259.165 359.713L258.618 360.504L258.045 361.271L257.446 362.013L256.821 362.729L256.171 363.418L255.497 364.078L254.8 364.708L254.08 365.307L253.338 365.875L252.576 366.41L251.794 366.912L250.994 367.382L250.177 367.818L249.345 368.22L248.498 368.59L247.639 368.927L246.769 369.232L245.888 369.506L245 369.75L244.104 369.965L243.203 370.153L242.297 370.315L241.389 370.453L240.478 370.568L239.567 370.663L238.656 370.739L237.747 370.798L236.839 370.843L235.933 370.875L235.031 370.897L234.132 370.911L233.237 370.918L232.346 370.922L231.458 370.923L230.575 370.925L229.695 370.928L228.819 370.935L227.945 370.948L227.074 370.966L226.205 370.993L225.337 371.029L224.469 371.075L223.601 371.132L222.732 371.2L221.861 371.28L220.987 371.372L220.108 371.475L219.225 371.591L218.337 371.718L217.442 371.856L216.539 372.005L215.628 372.164L214.709 372.333L213.779 372.511L212.84 372.697L211.889 372.889L210.926 373.087L209.952 373.289L208.964 373.495L207.964 373.702L206.951 373.91L205.925 374.117L204.885 374.321L203.831 374.521L202.764 374.715L201.683 374.901L200.59 375.079L199.483 375.245L198.365 375.4L197.234 375.54L196.092 375.665L194.939 375.772L193.776 375.861L192.604 375.929L191.424 375.976L190.236 376L189.042 375.999L187.842 375.973L186.638 375.92L185.431 375.839L184.222 375.729L183.011 375.59L181.801 375.419L180.593 375.217L179.388 374.982L178.187 374.714L176.992 374.413L175.804 374.077L174.625 373.707L173.455 373.301L172.298 372.86L171.153 372.384L170.022 371.872L168.907 371.324L167.81 370.741L166.731 370.122L165.671 369.469L164.633 368.78L163.617 368.058L162.625 367.302L161.658 366.513L160.716 365.691L159.802 364.838L158.916 363.954L158.058 363.04L157.23 362.097L156.434 361.126L155.669 360.127L154.936 359.103L154.236 358.054L153.57 356.982L152.939 355.886L152.342 354.77L151.781 353.633L151.256 352.477L150.767 351.304L150.315 350.114L149.9 348.909L149.522 347.69L149.182 346.459L148.878 345.217L148.611 343.965L148.381 342.706L148.187 341.439L148.03 340.167L147.907 338.891L147.82 337.612L147.766 336.332L147.746 335.052L147.758 333.773L147.802 332.496L147.876 331.223L147.98 329.955L148.111 328.692L148.27 327.437L148.454 326.188L148.662 324.948L148.894 323.718L149.146 322.497L149.419 321.288L149.711 320.089L150.019 318.902L150.344 317.727L150.682 316.564L151.033 315.414L151.395 314.276L151.767 313.152L152.148 312.039L152.535 310.94L152.927 309.853L153.324 308.779L153.724 307.716L154.126 306.665L154.528 305.624L154.929 304.595L155.328 303.575L155.724 302.565L156.115 301.563L156.501 300.569L156.879 299.582L157.25 298.601L157.611 297.625L157.963 296.653L158.304 295.684L158.634 294.717L158.951 293.751L159.256 292.784L159.549 291.815L159.828 290.844L160.094 289.869L160.347 288.889L160.586 287.903L160.813 286.909L161.027 285.907L161.229 284.896L161.419 283.874L161.598 282.841L161.766 281.795L161.925 280.737L162.075 279.664L162.217 278.577L162.352 277.475L162.481 276.356L162.605 275.221L162.725 274.068L162.841 272.898L162.956 271.71L163.071 270.503L163.185 269.277L163.302 268.032L163.423 266.769L163.549 265.486L163.681 264.186L163.822 262.867L163.973 261.531L164.135 260.178L164.312 258.809L164.503 257.425L164.712 256.027L164.939 254.616L165.187 253.194L165.457 251.762L165.751 250.321L166.07 248.874L166.416 247.421L166.791 245.965L167.195 244.509L167.63 243.053L168.098 241.599L168.598 240.151L169.133 238.711L169.703 237.279L170.308 235.86L170.95 234.455L171.629 233.066L172.345 231.695L173.098 230.346L173.889 229.019L174.717 227.718L175.582 226.445L176.485 225.201L177.424 223.989L178.398 222.81L179.409 221.666L180.453 220.56L181.531 219.492L182.642 218.463L183.783 217.475L184.954 216.528L186.154 215.624L187.381 214.762L188.633 213.943L189.909 213.166L191.208 212.433L192.528 211.743L193.867 211.095L195.224 210.489L196.597 209.925L197.985 209.402L199.387 208.919L200.801 208.476L202.226 208.072L203.661 207.705L205.104 207.375L206.554 207.082L208.011 206.824L209.473 206.6L210.939 206.409L212.409 206.252L213.881 206.126L215.356 206.033L216.831 205.97L218.308 205.938L219.783 205.936L221.259 205.965L222.732 206.024L224.204 206.113L225.673 206.233L227.138 206.383L228.599 206.565L230.056 206.777L231.507 207.02L232.952 207.295L234.389 207.601L235.82 207.939L237.242 208.309L238.654 208.71L240.057 209.143L241.448 209.609L242.829 210.106L244.196 210.635L245.551 211.196L246.891 211.788L248.217 212.413L249.527 213.068L250.821 213.754L252.097 214.471L253.355 215.218L254.595 215.995L255.815 216.802L257.015 217.636L258.194 218.499L259.352 219.39L260.487 220.307L261.601 221.249L262.691 222.217L263.757 223.208L264.8 224.223L265.818 225.26L266.812 226.318L267.78 227.397L268.724 228.494L269.642 229.609L270.535 230.742L271.402 231.89L272.244 233.054L273.06 234.232L273.849 235.423L274.612 236.627L275.349 237.844L276.059 239.072L276.742 240.311L277.398 241.561L278.026 242.82L278.626 244.089L279.198 245.366L279.742 246.652L280.257 247.945L280.742 249.246L281.199 250.553L281.626 251.866L282.023 253.185L282.39 254.508L282.727 255.835L283.033 257.166L283.309 258.499L283.554 259.835L283.769 261.171L283.954 262.507L284.108 263.843L284.232 265.177L284.326 266.509L284.391 267.838L284.428 269.161L284.436 270.48L284.416 271.792L284.371 273.096L284.299 274.392L284.203 275.678L284.084 276.954L283.942 278.218L283.779 279.47L283.596 280.71L283.393 281.936L283.172 283.148L282.934 284.345L282.68 285.527L282.412 286.693L282.129 287.843L281.834 288.978L281.527 290.095L281.21 291.197L280.882 292.281L280.546 293.348L280.202 294.399L279.851 295.433L279.495 296.45L279.132 297.45L278.766 298.434L278.395 299.401L278.022 300.353L277.647 301.288L277.27 302.209L276.891 303.114L276.513 304.004L276.134 304.879L275.756 305.741L275.38 306.589L275.005 307.424L274.632 308.246L274.261 309.055L273.893 309.853" fill="url(#paint0_linear_60_148729)"/>
<path fill-rule="evenodd" clip-rule="evenodd" d="M385.604 86.9184V86.9184L385.995 88.0037L386.4 89.0998L386.816 90.2074L387.237 91.3271L387.657 92.459L388.072 93.6031L388.476 94.759L388.865 95.9263L389.233 97.1041L389.576 98.2914L389.889 99.4871L390.17 100.69L390.413 101.898L390.617 103.11L390.778 104.324L390.897 105.539L390.971 106.753L391 107.965L390.985 109.174L390.926 110.378L390.824 111.576L390.68 112.766L390.493 113.949L390.263 115.121L389.989 116.281L389.67 117.428L389.304 118.559L388.891 119.673L388.43 120.767L387.921 121.839L387.362 122.888L386.755 123.912L386.099 124.908L385.396 125.877L384.646 126.815L383.853 127.723L383.017 128.599L382.14 129.442L381.227 130.254L380.28 131.033L379.302 131.78L378.297 132.495L377.269 133.18L376.221 133.837L375.158 134.466L374.084 135.069L373.002 135.65L371.918 136.21L370.836 136.752L369.758 137.279L368.69 137.794L367.635 138.301L366.596 138.803L365.577 139.304L364.581 139.808L363.609 140.317L362.665 140.836L361.751 141.368L360.867 141.916L360.015 142.485L359.197 143.076L358.411 143.693L357.658 144.339L356.938 145.015L356.249 145.724L355.59 146.467L354.961 147.245L354.357 148.059L353.779 148.909L353.222 149.795L352.684 150.717L352.162 151.673L351.652 152.661L351.152 153.681L350.657 154.728L350.165 155.8L349.671 156.895L349.172 158.008L348.665 159.134L348.145 160.271L347.611 161.413L347.058 162.555L346.485 163.693L345.887 164.821L345.264 165.935L344.613 167.029L343.933 168.099L343.222 169.139L342.479 170.146L341.704 171.115L340.896 172.042L340.056 172.923L339.184 173.757L338.281 174.539L337.348 175.269L336.387 175.944L335.398 176.563L334.384 177.127L333.347 177.635L332.289 178.088L331.212 178.487L330.118 178.833L329.01 179.127L327.89 179.373L326.759 179.571L325.62 179.725L324.474 179.837L323.325 179.912L322.173 179.952L321.02 179.96L319.867 179.941L318.717 179.896L317.568 179.829L316.424 179.744L315.284 179.644L314.149 179.533L313.02 179.413L311.896 179.287L310.778 179.159L309.666 179.031L308.56 178.905L307.459 178.784L306.362 178.671L305.27 178.566L304.182 178.471L303.097 178.388L302.014 178.318L300.932 178.262L299.852 178.221L298.771 178.194L297.689 178.183L296.605 178.187L295.518 178.206L294.427 178.24L293.332 178.287L292.232 178.348L291.126 178.421L290.013 178.504L288.893 178.597L287.766 178.698L286.631 178.805L285.487 178.916L284.335 179.03L283.175 179.144L282.006 179.255L280.829 179.363L279.644 179.463L278.451 179.555L277.252 179.635L276.046 179.7L274.835 179.749L273.62 179.779L272.401 179.788L271.179 179.772L269.957 179.73L268.735 179.66L267.514 179.559L266.297 179.426L265.084 179.258L263.878 179.054L262.679 178.813L261.49 178.532L260.313 178.212L259.149 177.85L257.999 177.447L256.865 177.001L255.75 176.513L254.654 175.982L253.578 175.408L252.525 174.791L251.496 174.133L250.491 173.433L249.512 172.693L248.561 171.913L247.637 171.095L246.742 170.239L245.876 169.348L245.04 168.422L244.236 167.462L243.462 166.471L242.72 165.45L242.01 164.399L241.333 163.321L240.689 162.217L240.079 161.089L239.502 159.936L238.96 158.761L238.452 157.565L237.981 156.348L237.544 155.112L237.144 153.859L236.78 152.59L236.451 151.306L236.156 150.011L235.894 148.707L235.662 147.397L235.458 146.084L235.28 144.772L235.123 143.463L234.984 142.161L234.86 140.87L234.745 139.592L234.635 138.33L234.527 137.087L234.415 135.866L234.295 134.669L234.162 133.497L234.013 132.351L233.842 131.234L233.646 130.145L233.421 129.085L233.163 128.055L232.869 127.053L232.537 126.079L232.163 125.132L231.745 124.211L231.282 123.314L230.772 122.439L230.215 121.584L229.609 120.748L228.955 119.927L228.254 119.118L227.506 118.319L226.713 117.528L225.876 116.741L224.999 115.954L224.083 115.166L223.133 114.374L222.151 113.574L221.142 112.763L220.111 111.939L219.062 111.101L218 110.244L216.932 109.367L215.862 108.469L214.796 107.547L213.742 106.601L212.705 105.628L211.691 104.63L210.707 103.604L209.76 102.551L208.856 101.471L208.002 100.365L207.203 99.233L206.466 98.0768L205.796 96.8978L205.2 95.6977L204.681 94.4788L204.246 93.2434L203.898 91.994L203.641 90.7337L203.479 89.4655L203.414 88.1926L203.447 86.9184L203.581 85.6464L203.815 84.38L204.151 83.1229L204.586 81.8784L205.12 80.65L205.75 79.441L206.472 78.2545L207.283 77.0933L208.179 75.9602L209.154 74.8573L210.201 73.7867L211.316 72.75L212.489 71.7483L213.714 70.7825L214.983 69.8528L216.289 68.9593L217.622 68.1014L218.976 67.2782L220.342 66.4888L221.714 65.7315L223.085 65.0048L224.45 64.3071L225.804 63.6367L227.144 62.9919L228.467 62.3714L229.77 61.7734L231.051 61.1962L232.307 60.6377L233.534 60.0956L234.728 59.5672L235.887 59.0497L237.007 58.54L238.084 58.0347L239.115 57.5303L240.096 57.023L241.023 56.5089L241.895 55.984L242.708 55.4441L243.46 54.8851L244.148 54.303L244.773 53.6936L245.332 53.053L245.826 52.3776L246.254 51.6638L246.618 50.9083L246.918 50.1082L247.157 49.261L247.337 48.3644L247.46 47.4166L247.531 46.4164L247.552 45.363L247.53 44.256L247.467 43.0958L247.369 41.8831L247.243 40.6192L247.093 39.306L246.925 37.946L246.745 36.5421L246.561 35.0978L246.377 33.6171L246.2 32.1045L246.035 30.5648L245.89 29.0033L245.77 27.4256L245.68 25.8377L245.626 24.2457L245.613 22.6562L245.644 21.0755L245.725 19.5105L245.859 17.9677L246.05 16.4538L246.299 14.9754L246.61 13.539L246.984 12.1506L247.422 10.8164L247.925 9.54203L248.494 8.33271L249.127 7.19336L249.824 6.12842L250.585 5.1418L251.406 4.23692L252.286 3.41659L253.221 2.68306L254.211 2.03794L255.249 1.48222L256.334 1.01626L257.462 0.639746L258.628 0.351754L259.827 0.1507L261.057 0.034382L262.311 0L263.587 0.0441922L264.879 0.163071L266.183 0.352265L267.495 0.606965L268.81 0.921979L270.126 1.29179L271.438 1.71061L272.743 2.17247L274.037 2.67127L275.319 3.2009L276.585 3.75527L277.834 4.32849L279.063 4.91485L280.272 5.509L281.459 6.10596L282.624 6.70127L283.766 7.29095L284.886 7.87155L285.983 8.44006L287.058 8.99361L288.111 9.52943L289.144 10.0448L290.156 10.5373L291.149 11.0043L292.124 11.4436L293.082 11.8531L294.023 12.2309L294.95 12.5753L295.863 12.8847L296.765 13.1579L297.656 13.3941L298.539 13.5924L299.414 13.7527L300.284 13.8749L301.15 13.9594L302.014 14.0068L302.877 14.0183L303.741 13.9953L304.607 13.9397L305.477 13.8535L306.351 13.7392L307.231 13.5997L308.118 13.4381L309.013 13.2578L309.916 13.0623L310.827 12.8554L311.747 12.6412L312.675 12.4238L313.612 12.2073L314.557 11.996L315.509 11.794L316.468 11.6055L317.433 11.4346L318.402 11.2851L319.375 11.1606L320.349 11.0648L321.324 11.0006L322.297 10.9709L323.268 10.9783L324.234 11.0247L325.193 11.1118L326.145 11.2408L327.088 11.4125L328.019 11.6272L328.939 11.8848L329.845 12.1844L330.737 12.5252L331.614 12.9054L332.476 13.3232L333.322 13.7761L334.152 14.2614L334.967 14.7759L335.767 15.3164L336.553 15.8793L337.327 16.4606L338.089 17.0565L338.841 17.663L339.586 18.276L340.326 18.8915L341.062 19.5057L341.798 20.1147L342.536 20.7151L343.279 21.3037L344.03 21.8775L344.791 22.4339L345.565 22.9709L346.355 23.4868L347.163 23.9803L347.991 24.4509L348.841 24.8982L349.715 25.3228L350.614 25.7255L351.539 26.1077L352.49 26.4712L353.467 26.8183L354.469 27.1517L355.497 27.4744L356.547 27.7896L357.619 28.1004L358.712 28.4104L359.822 28.7227L360.948 29.0404L362.088 29.3663L363.24 29.7032L364.4 30.054L365.567 30.4217L366.736 30.8095L367.903 31.2205L369.065 31.6577L370.218 32.1239L371.356 32.6219L372.476 33.1541L373.573 33.7227L374.641 34.3296L375.678 34.9764L376.677 35.6642L377.636 36.3938L378.55 37.1657L379.416 37.9798L380.23 38.8358L380.99 39.7329L381.692 40.67L382.336 41.6456L382.919 42.6578L383.441 43.7045L383.9 44.7834L384.299 45.8918L384.636 47.027L384.913 48.1858L385.132 49.3654L385.295 50.5625L385.404 51.7739L385.464 52.9964L385.477 54.227L385.448 55.4625L385.381 56.7L385.28 57.9368L385.151 59.1704L384.999 60.3984L384.829 61.6186L384.647 62.8294L384.457 64.0291L384.265 65.2166L384.077 66.3908L383.897 67.5513L383.731 68.6977L383.583 69.83L383.456 70.9485L383.356 72.0539L383.285 73.1469L383.247 74.2286L383.243 75.3004L383.276 76.3638L383.346 77.4202L383.455 78.4716L383.603 79.5197L383.789 80.5665L384.012 81.6137L384.27 82.6632L384.561 83.7169L384.883 84.7763L385.232 85.843L385.604 86.9184" fill="url(#paint1_linear_60_148729)"/>
<path fill-rule="evenodd" clip-rule="evenodd" d="M180.477 154.489V154.489L180.576 155.533L180.614 156.578L180.591 157.623L180.506 158.664L180.362 159.701L180.157 160.731L179.895 161.753L179.576 162.765L179.202 163.765L178.776 164.751L178.299 165.723L177.774 166.679L177.204 167.618L176.592 168.539L175.942 169.44L175.256 170.323L174.538 171.185L173.792 172.028L173.023 172.85L172.233 173.653L171.428 174.436L170.612 175.202L169.789 175.949L168.962 176.68L168.137 177.396L167.317 178.099L166.505 178.789L165.705 179.468L164.92 180.139L164.152 180.803L163.404 181.462L162.678 182.117L161.976 182.77L161.3 183.424L160.651 184.081L160.03 184.742L159.439 185.409L158.88 186.084L158.351 186.77L157.854 187.468L157.39 188.18L156.958 188.908L156.558 189.654L156.19 190.419L155.853 191.204L155.547 192.012L155.27 192.843L155.023 193.699L154.802 194.581L154.607 195.49L154.437 196.426L154.29 197.39L154.163 198.384L154.055 199.406L153.964 200.457L153.888 201.537L153.824 202.646L153.769 203.784L153.722 204.949L153.68 206.141L153.641 207.359L153.601 208.603L153.559 209.869L153.511 211.158L153.456 212.467L153.39 213.795L153.312 215.14L153.219 216.5L153.108 217.872L152.978 219.255L152.827 220.646L152.652 222.042L152.452 223.442L152.225 224.843L151.97 226.242L151.685 227.637L151.368 229.026L151.02 230.405L150.639 231.773L150.224 233.127L149.774 234.466L149.29 235.786L148.771 237.085L148.218 238.362L147.629 239.616L147.005 240.843L146.347 242.043L145.655 243.214L144.931 244.355L144.173 245.465L143.384 246.543L142.564 247.588L141.715 248.599L140.837 249.577L139.931 250.521L139 251.43L138.043 252.305L137.062 253.146L136.059 253.954L135.035 254.728L133.991 255.469L132.928 256.179L131.848 256.857L130.752 257.505L129.64 258.124L128.515 258.714L127.376 259.275L126.225 259.81L125.063 260.316L123.89 260.796L122.707 261.249L121.514 261.676L120.313 262.075L119.104 262.446L117.886 262.789L116.662 263.103L115.431 263.386L114.193 263.637L112.95 263.855L111.701 264.038L110.448 264.183L109.191 264.29L107.931 264.358L106.669 264.383L105.406 264.366L104.143 264.306L102.881 264.2L101.621 264.05L100.364 263.852L99.1116 263.608L97.865 263.318L96.6254 262.979L95.394 262.594L94.1721 262.162L92.961 261.683L91.7618 261.159L90.5758 260.589L89.4042 259.975L88.2479 259.318L87.1082 258.62L85.9858 257.882L84.8818 257.106L83.7969 256.293L82.7319 255.447L81.6872 254.569L80.6634 253.662L79.6607 252.728L78.6794 251.77L77.7196 250.792L76.7811 249.796L75.8636 248.786L74.9668 247.764L74.0901 246.734L73.2328 245.7L72.394 244.665L71.5725 243.631L70.7672 242.604L69.9768 241.585L69.1997 240.58L68.4341 239.589L67.6784 238.618L66.9306 237.668L66.1887 236.744L65.4505 235.847L64.7137 234.98L63.9761 234.146L63.2354 233.347L62.489 232.584L61.7347 231.86L60.9699 231.175L60.1924 230.532L59.3997 229.93L58.5896 229.37L57.7599 228.853L56.9085 228.378L56.0334 227.944L55.1328 227.552L54.2051 227.2L53.2488 226.886L52.2628 226.609L51.2458 226.367L50.1973 226.158L49.1165 225.979L48.0031 225.827L46.8572 225.699L45.6787 225.593L44.4683 225.505L43.2264 225.432L41.9539 225.37L40.6521 225.316L39.3223 225.266L37.9663 225.216L36.586 225.163L35.1838 225.103L33.7626 225.032L32.3252 224.945L30.8751 224.838L29.4159 224.708L27.9513 224.55L26.4854 224.362L25.0223 224.139L23.5662 223.878L22.1213 223.577L20.6919 223.232L19.2822 222.841L17.8964 222.404L16.5383 221.917L15.2119 221.38L13.9211 220.792L12.6696 220.152L11.4612 219.459L10.2993 218.714L9.18722 217.917L8.12813 217.068L7.12492 216.167L6.18026 215.217L5.29661 214.218L4.47619 213.172L3.72098 212.08L3.0327 210.944L2.41282 209.767L1.86253 208.55L1.38275 207.297L0.974098 206.009L0.63694 204.689L0.371329 203.34L0.177034 201.965L0.0535294 200.567L0 199.148L0.0153414 197.712L0.0981655 196.262L0.246806 194.801L0.459327 193.331L0.733532 191.856L1.06698 190.379L1.45698 188.902L1.90063 187.428L2.39483 185.96L2.93628 184.5L3.52153 183.051L4.14695 181.615L4.80881 180.193L5.50328 178.788L6.22643 177.402L6.97428 176.035L7.74284 174.69L8.52808 173.368L9.32602 172.068L10.1327 170.793L10.9442 169.542L11.7568 168.317L12.5668 167.116L13.3706 165.941L14.165 164.79L14.9466 163.664L15.7125 162.562L16.4599 161.482L17.1863 160.425L17.8894 159.39L18.5672 158.374L19.2179 157.378L19.84 156.399L20.4324 155.437L20.9941 154.489L21.5245 153.556L22.0232 152.634L22.4903 151.723L22.926 150.822L23.3306 149.928L23.7051 149.041L24.0502 148.159L24.3672 147.281L24.6575 146.406L24.9225 145.532L25.164 144.66L25.3837 143.788L25.5836 142.915L25.7657 142.04L25.9321 141.164L26.0851 140.285L26.227 139.404L26.3605 138.52L26.4887 137.633L26.6145 136.745L26.7411 135.854L26.8717 134.962L27.0093 134.07L27.157 133.178L27.3177 132.288L27.4942 131.401L27.689 130.518L27.9041 129.64L28.1416 128.768L28.4028 127.905L28.6891 127.05L29.0013 126.205L29.3404 125.371L29.7069 124.55L30.1014 123.743L30.5243 122.951L30.9755 122.174L31.4551 121.414L31.9628 120.673L32.4983 119.95L33.0609 119.246L33.65 118.563L34.2645 117.9L34.9035 117.259L35.5656 116.639L36.2497 116.041L36.9541 115.465L37.6773 114.91L38.4177 114.376L39.1734 113.864L39.9426 113.372L40.7234 112.9L41.5139 112.446L42.3122 112.011L43.1162 111.592L43.924 111.189L44.7337 110.8L45.5433 110.424L46.3512 110.06L47.1554 109.704L47.9543 109.357L48.7463 109.016L49.5299 108.679L50.3038 108.345L51.0667 108.011L51.8175 107.676L52.5553 107.337L53.2791 106.994L53.9884 106.644L54.6825 106.285L55.3612 105.916L56.0243 105.536L56.6715 105.141L57.3031 104.733L57.9193 104.308L58.5203 103.866L59.1067 103.405L59.6792 102.926L60.2383 102.426L60.785 101.905L61.3202 101.364L61.8449 100.801L62.3601 100.216L62.867 99.6088L63.3669 98.9799L63.8608 98.3293L64.3502 97.6573L64.8363 96.9641L65.3203 96.2503L65.8035 95.5165L66.2874 94.7633L66.773 93.9916L67.2617 93.2022L67.7548 92.396L68.2532 91.5741L68.7584 90.7374L69.2713 89.8872L69.793 89.0248L70.3247 88.1513L70.8672 87.2681L71.4216 86.3768L71.9887 85.4787L72.5693 84.5754L73.1643 83.6683L73.7741 82.7588L74.3995 81.8482L75.0408 80.9377L75.6985 80.0284L76.3728 79.1212L77.064 78.2171L77.7723 77.3169L78.4978 76.4213L79.2407 75.5311L80.001 74.647L80.7788 73.7697L81.5741 72.9L82.387 72.0386L83.2175 71.1864L84.0656 70.3444L84.9312 69.5134L85.8142 68.6942L86.7146 67.8878L87.6321 67.0947L88.5666 66.3157L89.5179 65.5516L90.4857 64.8029L91.4699 64.0702L92.4701 63.3543L93.4861 62.6557L94.5175 61.9751L95.564 61.313L96.6254 60.6703L97.7011 60.0475L98.7909 59.4453L99.8943 58.8645L101.011 58.3059L102.14 57.7702L103.281 57.2583L104.435 56.7709L105.599 56.3089L106.773 55.8732L107.958 55.4647L109.151 55.0844L110.354 54.7332L111.563 54.412L112.78 54.1219L114.002 53.8638L115.23 53.6387L116.462 53.4477L117.696 53.2917L118.933 53.1718L120.171 53.089L121.408 53.0443L122.644 53.0386L123.877 53.0729L125.107 53.1482L126.331 53.2653L127.548 53.4252L128.757 53.6286L129.956 53.8763L131.144 54.1691L132.319 54.5076L133.479 54.8923L134.624 55.3238L135.751 55.8025L136.859 56.3287L137.946 56.9026L139.01 57.5243L140.051 58.1937L141.065 58.9108L142.052 59.6753L143.011 60.4867L143.939 61.3445L144.835 62.2479L145.698 63.1962L146.527 64.1882L147.32 65.2229L148.077 66.2988L148.796 67.4146L149.477 68.5685L150.119 69.7587L150.722 70.9835L151.285 72.2406L151.807 73.5279L152.29 74.8431L152.732 76.1839L153.135 77.5477L153.498 78.9321L153.823 80.3345L154.109 81.7521L154.358 83.1824L154.571 84.6224L154.75 86.0696L154.895 87.5211L155.008 88.9742L155.092 90.4262L155.148 91.8743L155.178 93.3158L155.184 94.7483L155.169 96.1691L155.136 97.5758L155.086 98.966L155.023 100.337L154.95 101.688L154.869 103.016L154.784 104.32L154.698 105.597L154.613 106.846L154.532 108.067L154.459 109.258L154.396 110.417L154.347 111.546L154.314 112.642L154.3 113.707L154.307 114.739L154.338 115.74L154.394 116.709L154.479 117.647L154.594 118.555L154.741 119.434L154.922 120.285L155.137 121.109L155.389 121.908L155.678 122.683L156.005 123.436L156.37 124.168L156.774 124.882L157.216 125.58L157.697 126.263L158.216 126.934L158.773 127.595L159.365 128.248L159.992 128.895L160.652 129.539L161.344 130.182L162.065 130.827L162.812 131.474L163.584 132.127L164.377 132.787L165.188 133.456L166.014 134.137L166.851 134.83L167.697 135.537L168.546 136.261L169.395 137.001L170.241 137.758L171.079 138.535L171.905 139.331L172.715 140.147L173.505 140.983L174.271 141.839L175.009 142.715L175.715 143.611L176.386 144.526L177.018 145.459L177.608 146.41L178.152 147.378L178.648 148.36L179.092 149.357L179.484 150.366L179.819 151.385L180.098 152.413L180.317 153.449L180.477 154.489" fill="url(#paint2_linear_60_148729)"/>
<defs>
<linearGradient id="paint0_linear_60_148729" x1="438.751" y1="507.619" x2="328.141" y2="614.314" gradientUnits="userSpaceOnUse">
<stop stop-color="#CC8700"/>
<stop offset="1" stop-color="#96360A"/>
</linearGradient>
<linearGradient id="paint1_linear_60_148729" x1="210.97" y1="90.8448" x2="397.86" y2="75.2987" gradientUnits="userSpaceOnUse">
<stop stop-color="#545454"/>
<stop offset="1" stop-color="#55636B"/>
</linearGradient>
<linearGradient id="paint2_linear_60_148729" x1="-93.8618" y1="240.078" x2="73.454" y2="324.042" gradientUnits="userSpaceOnUse">
<stop stop-color="#1F1780"/>
<stop offset="1" stop-color="#26AFFC"/>
</linearGradient>
</defs>
</svg>
