<svg width="58" height="57" viewBox="0 0 58 57" fill="none" xmlns="http://www.w3.org/2000/svg">
<path d="M28.9682 0C25.164 0 21.3971 0.749284 17.8825 2.20507C14.3679 3.66086 11.1745 5.79463 8.48458 8.48458C3.05199 13.9172 0 21.2853 0 28.9682C0 41.7721 8.31386 52.6351 19.8142 56.4879C21.2626 56.7197 21.7261 55.8216 21.7261 55.0395C21.7261 54.3732 21.7261 52.5482 21.7261 50.1439C13.7019 51.882 11.9928 46.2621 11.9928 46.2621C10.6603 42.9018 8.77735 42.0038 8.77735 42.0038C6.14125 40.2078 8.98013 40.2657 8.98013 40.2657C11.8769 40.4685 13.4123 43.2495 13.4123 43.2495C15.9325 47.6526 20.1908 46.3491 21.842 45.6538C22.1027 43.7709 22.8559 42.4963 23.667 41.7721C17.2361 41.0479 10.4865 38.5566 10.4865 27.5197C10.4865 24.3043 11.5873 21.7261 13.4702 19.6694C13.1805 18.9452 12.1666 15.9325 13.7599 12.0218C13.7599 12.0218 16.1932 11.2396 21.7261 14.9765C24.0146 14.3392 26.5059 14.0206 28.9682 14.0206C31.4305 14.0206 33.9217 14.3392 36.2102 14.9765C41.7431 11.2396 44.1764 12.0218 44.1764 12.0218C45.7697 15.9325 44.7558 18.9452 44.4661 19.6694C46.3491 21.7261 47.4498 24.3043 47.4498 27.5197C47.4498 38.5856 40.6713 41.0189 34.2114 41.7431C35.2542 42.6411 36.2102 44.4082 36.2102 47.1022V55.0395C36.2102 55.8216 36.6737 56.7486 38.1511 56.4879C49.6514 52.6062 57.9363 41.7721 57.9363 28.9682C57.9363 25.164 57.187 21.3971 55.7312 17.8825C54.2755 14.3679 52.1417 11.1745 49.4517 8.48458C46.7618 5.79463 43.5684 3.66086 40.0538 2.20507C36.5392 0.749284 32.7723 0 28.9682 0V0Z" fill="url(#paint0_linear_77_18)"/>
<defs>
<linearGradient id="paint0_linear_77_18" x1="28.9682" y1="0" x2="28.9682" y2="56.5328" gradientUnits="userSpaceOnUse">
<stop stop-color="#2D2D2D"/>
<stop offset="1" stop-color="#1E1E1E"/>
</linearGradient>
</defs>
</svg>
