<svg width="58" height="58" viewBox="0 0 58 58" fill="none" xmlns="http://www.w3.org/2000/svg">
<path d="M53.645 0H4.27683C1.91592 0 0 1.87086 0 4.17463V53.756C0 56.063 1.91592 57.9363 4.27683 57.9363H53.645C56.0075 57.9363 57.9363 56.063 57.9363 53.756V4.17463C57.9363 1.87086 56.0075 0 53.645 0V0ZM17.1829 49.3698H8.58584V21.7221H17.1829V49.3698ZM12.8844 17.9418C10.13 17.9418 7.90348 15.7096 7.90348 12.9576C7.90348 10.2097 10.13 7.97751 12.8844 7.97751C15.6323 7.97751 17.8645 10.2097 17.8645 12.9576C17.8645 15.7096 15.6323 17.9418 12.8844 17.9418ZM49.3666 49.3698H40.7831V35.9253C40.7831 32.7179 40.7204 28.594 36.3164 28.594C31.8441 28.594 31.1625 32.0871 31.1625 35.6928V49.3706H22.5726V21.7221H30.8165V25.4976H30.934C32.0814 23.325 34.8849 21.0325 39.066 21.0325C47.7612 21.0325 49.3674 26.7569 49.3674 34.2042V49.3698H49.3666Z" fill="url(#paint0_linear_77_14)"/>
<defs>
<linearGradient id="paint0_linear_77_14" x1="28.9682" y1="0" x2="28.9682" y2="57.9363" gradientUnits="userSpaceOnUse">
<stop stop-color="#2D2D2D"/>
<stop offset="1" stop-color="#1E1E1E"/>
</linearGradient>
</defs>
</svg>
