<svg width="31" height="24" viewBox="0 0 31 24" fill="none" xmlns="http://www.w3.org/2000/svg">
<path d="M9.4 0.535999C11.768 0.535999 13.8373 1.00533 15.608 1.944C17.3787 2.88267 18.744 4.20533 19.704 5.912C20.6853 7.59733 21.176 9.54933 21.176 11.768C21.176 13.9653 20.6853 15.9173 19.704 17.624C18.744 19.3307 17.368 20.6533 15.576 21.592C13.8053 22.5307 11.7467 23 9.4 23H0.984V0.535999H9.4ZM9.048 18.264C11.1173 18.264 12.728 17.6987 13.88 16.568C15.032 15.4373 15.608 13.8373 15.608 11.768C15.608 9.69867 15.032 8.088 13.88 6.936C12.728 5.784 11.1173 5.208 9.048 5.208H6.456V18.264H9.048ZM26.794 23.256C25.834 23.256 25.0447 22.9787 24.426 22.424C23.8287 21.848 23.53 21.144 23.53 20.312C23.53 19.4587 23.8287 18.744 24.426 18.168C25.0447 17.592 25.834 17.304 26.794 17.304C27.7327 17.304 28.5007 17.592 29.098 18.168C29.7167 18.744 30.026 19.4587 30.026 20.312C30.026 21.144 29.7167 21.848 29.098 22.424C28.5007 22.9787 27.7327 23.256 26.794 23.256Z" fill="#202129"/>
</svg>
